<?xml version="1.0" encoding="UTF-8" standalone="no"?>
<svg width="445px" height="87px" viewBox="0 0 445 87" version="1.1" xmlns="http://www.w3.org/2000/svg" xmlns:xlink="http://www.w3.org/1999/xlink">
    <!-- Generator: Sketch 45.2 (43514) - http://www.bohemiancoding.com/sketch -->
    <title>logo-wordmark-branding160x45px</title>
    <desc>Created with Sketch.</desc>
    <defs></defs>
    <g id="Page-1" stroke="none" stroke-width="1" fill="currentColor" fill-rule="evenodd">
        <g id="logo-wordmark-branding160x45px" fill="currentColor">
            <path d="M224.722235,77.1538235 C224.722235,78.6823098 224.722235,79.0296932 225.764385,79.9676281 L231.600424,85.6647136 L231.600424,85.9078819 L205.720371,85.9078819 L205.720371,74.9653088 C203.115708,82.177314 196.226915,86.9464788 188.559637,86.8458167 C175.254858,86.8458167 165.597603,76.4243186 165.597603,57.2487624 C165.597603,39.2890475 176.019101,27.3043248 190.643937,27.3043248 C197.126692,26.8962386 203.15928,30.6300342 205.685632,36.6141964 L205.685632,12.4710593 C205.877893,11.3530292 205.420327,10.2225701 204.504529,9.55303984 L198.946397,4.20333753 L198.946397,3.96016923 L224.722235,0.937934819 L224.722235,77.1538235 Z M205.720371,73.6799908 L205.720371,37.6563461 C203.844849,35.3267052 200.998829,33.9934349 198.008462,34.0435602 C191.720825,34.0435602 185.641618,39.7406457 185.641618,56.6582107 C185.641618,72.4988877 190.887105,78.0917584 197.41791,78.0917584 C200.729209,78.023993 203.811149,76.3863095 205.720371,73.6799908 Z M241.882968,85.9078819 L241.882968,37.2742246 C242.048569,36.1881718 241.65695,35.091639 240.840819,34.356205 L235.108995,28.4506895 L235.108995,28.2075212 L260.989048,28.2075212 L260.989048,77.535945 C260.989048,79.0644316 260.989048,79.4118147 262.031198,80.3497496 L267.728284,85.699452 L267.728284,85.9426203 L241.882968,85.9078819 Z M240.945034,10.421498 C240.945034,4.66586358 245.610897,1.05729289e-15 251.366532,0 C257.122166,-1.05729289e-15 261.78803,4.66586358 261.78803,10.421498 C261.78803,16.1771324 257.122166,20.842996 251.366532,20.842996 C245.610897,20.842996 240.945034,16.1771324 240.945034,10.421498 L240.945034,10.421498 Z M330.813083,77.0496084 C330.813083,78.578095 330.813083,79.0296932 331.855234,79.9676281 L337.691273,85.6647136 L337.691273,85.9078819 L311.672268,85.9078819 L311.672268,73.4368225 C309.302938,81.3222542 302.084684,86.7535329 293.851506,86.8458167 C282.31838,86.8458167 276.134959,78.4391415 276.134959,62.5289881 C276.134959,54.8518178 276.134959,46.4451428 276.378127,36.9963179 C276.568709,35.9386186 276.169552,34.8608956 275.335977,34.1825134 L269.604153,28.4506895 L269.604153,28.2075212 L295.275776,28.2075212 C295.275776,28.5549046 295.275776,58.3951272 295.275776,59.9236135 C295.275776,70.3451116 296.804264,77.2927767 303.335068,77.2927767 C306.842474,77.073535 310.003176,75.1013614 311.741743,72.0472895 L311.741743,37.3089627 C311.907345,36.2229102 311.515725,35.1263773 310.699592,34.3909433 L304.933032,28.4506895 L304.933032,28.2075212 L330.813083,28.2075212 L330.813083,77.0496084 Z M418.90948,85.9078819 C418.90948,84.0320122 419.256864,60.1320434 419.256864,54.6433878 C419.256864,44.2218897 417.624162,37.0310563 410.294375,37.0310563 C406.606312,37.1447983 403.190712,39.0008221 401.088718,42.0333753 C401.823839,45.2811152 402.173637,48.6041758 402.130869,51.9337984 C402.130869,59.1593702 401.887702,68.3650268 401.783486,77.5706834 C401.592903,78.6283828 401.99206,79.7061057 402.825637,80.3844879 L408.661675,85.7341903 L408.661675,85.9773584 L382.538454,85.9773584 C382.538454,84.2404421 382.885838,60.2015202 382.885838,54.7128646 C382.885838,44.1176749 381.253135,37.1005328 374.027562,37.1005328 C370.465629,37.2283206 367.216041,39.1675911 365.412459,42.2418052 L365.412459,77.6748985 C365.412459,79.2033848 365.412459,79.5507679 366.454607,80.4887028 L372.151692,85.8384052 L372.151692,86.0815735 L346.306379,86.0815735 L346.306379,37.4479162 C346.47198,36.3618634 346.08036,35.2653308 345.264228,34.5298968 L339.532405,28.4506895 L339.532405,28.2075212 L365.412459,28.2075212 L365.412459,40.5743655 C367.811919,32.4093394 375.459438,26.9243207 383.962724,27.2695864 C392.577829,27.2695864 398.413868,32.0634754 400.880289,41.1649172 C403.619556,32.7709053 411.505061,27.1384026 420.333753,27.2695864 C431.866876,27.2695864 438.397682,35.7804764 438.397682,51.8643217 C438.397682,59.541492 438.154515,68.2955501 438.050299,77.5012067 C437.84776,78.5907394 438.311892,79.6964629 439.231401,80.3150112 L444.928488,85.6647136 L444.928488,85.9078819 L418.90948,85.9078819 Z M93.7934819,78.3349267 L101.470652,85.6647136 L101.470652,85.9078819 L62.5289881,85.9078819 L62.5289881,85.6647136 L70.3451116,78.3349267 C71.1786864,77.6565445 71.5778431,76.5788215 71.3872613,75.5211222 L71.3872613,28.6591195 C71.3872613,26.6790349 71.3872613,24.0041837 71.7346447,21.7114542 L45.4724696,86.8458167 L45.1598246,86.8458167 L17.9597149,26.9222032 C17.3691633,25.4284551 17.1954717,25.3242401 16.8133501,24.3168287 L16.8133501,63.6058761 C16.487708,66.2354398 16.9343032,68.9029409 18.0986682,71.2830462 L29.041241,85.6647136 L29.041241,85.9078819 L0,85.9078819 L0,85.6647136 L10.9425729,71.2483081 C12.0983393,68.8778584 12.5446732,66.2239816 12.227891,63.6058761 L12.227891,20.1829678 C12.4058139,18.0449237 11.7595639,15.9197555 10.421498,14.2427139 L2.67485115,4.20333753 L2.67485115,3.96016923 L30.4655124,3.96016923 L53.7401914,54.7128646 L74.2358042,3.96016923 L101.435914,3.96016923 L101.435914,4.20333753 L93.7934819,12.7142276 C92.8776847,13.3837578 92.4201179,14.5142169 92.612379,15.632247 L92.612379,75.5211222 C92.4098395,76.6106549 92.8739703,77.7163784 93.7934819,78.3349267 Z M124.258995,54.8518178 L124.258995,55.0949861 C124.258995,69.9629898 131.936165,75.937982 140.933391,75.937982 C148.446233,76.194467 155.399152,71.981816 158.649938,65.2038392 L158.893106,65.2038392 C155.766657,79.8981513 146.665215,86.8458167 133.047791,86.8458167 C118.353479,86.8458167 104.492887,77.9875433 104.492887,57.4571924 C104.492887,35.8846915 118.388217,27.2695864 133.742558,27.2695864 C146.109402,27.2695864 159.275228,33.1056254 159.275228,51.8643217 C159.275228,52.2117051 159.275228,53.4622847 159.275228,54.8518178 L124.258995,54.8518178 Z M124.258995,51.8643217 L141.384989,51.8643217 C141.384989,50.3358354 141.384989,49.2936855 141.384989,48.8420872 C141.384989,33.5572236 138.223802,29.4928395 133.464651,29.4928395 C127.698089,29.4928395 124.189518,35.5720465 124.189518,51.8643217 L124.258995,51.8643217 Z" id="Shape"></path>
        </g>
    </g>
</svg>
